<?xml version="1.0" standalone="no"?>
<!DOCTYPE svg PUBLIC "-//W3C//DTD SVG 20010904//EN"
 "http://www.w3.org/TR/2001/REC-SVG-20010904/DTD/svg10.dtd">
<svg version="1.0" xmlns="http://www.w3.org/2000/svg"
 width="142.000000pt" height="137.000000pt" viewBox="0 0 142.000000 137.000000"
 preserveAspectRatio="xMidYMid meet">

<g transform="translate(0.000000,137.000000) scale(0.100000,-0.100000)"
fill="#000000" stroke="none">
<path d="M510 1249 c-127 -52 -204 -89 -221 -107 -15 -15 -62 -112 -109 -224
-71 -170 -82 -203 -78 -240 7 -63 156 -418 187 -446 14 -13 111 -59 215 -103
145 -61 200 -79 236 -79 36 0 93 19 240 80 107 43 204 89 217 102 12 13 59
110 103 215 61 146 80 204 80 239 0 34 -20 95 -80 242 -44 108 -88 205 -98
214 -30 31 -416 188 -459 188 -24 -1 -110 -30 -233 -81z m230 -99 c0 -16 -4
-30 -10 -30 -11 0 -14 43 -3 53 11 12 13 8 13 -23z m-80 -35 c7 -9 10 -18 7
-22 -8 -7 -37 15 -37 28 0 14 16 11 30 -6z m180 6 c0 -13 -29 -35 -37 -28 -7
8 15 37 28 37 5 0 9 -4 9 -9z m-46 -67 c33 -13 14 -21 -48 -20 -35 1 -66 -1
-69 -4 -3 -3 0 -34 6 -70 12 -63 13 -65 44 -68 36 -4 47 10 58 75 6 40 20 61
31 50 8 -8 -25 -130 -38 -138 -20 -13 -84 -11 -96 4 -5 6 -13 32 -17 57 -4 25
-11 53 -16 62 -12 23 -1 46 24 51 36 7 104 7 121 1z m201 -240 c20 -20 13 -99
-17 -187 -11 -32 -17 -64 -14 -72 13 -35 100 -5 155 52 17 18 26 22 34 14 14
-14 -42 -73 -89 -96 -41 -19 -98 -19 -114 0 -12 14 -15 14 -36 0 -31 -20 -83
-19 -106 2 -50 45 8 144 75 128 21 -6 23 -2 34 60 11 64 34 115 53 115 4 0 16
-7 25 -16z m-590 -105 c1 -131 36 -205 81 -168 35 29 57 93 59 172 3 78 13
106 34 92 8 -4 11 -38 10 -93 -2 -94 18 -165 49 -177 24 -9 58 34 77 97 19 66
19 94 -1 102 -10 4 -14 16 -12 38 3 29 6 33 33 33 25 0 30 -4 33 -27 4 -33 17
-36 34 -8 17 27 40 26 36 -2 -2 -14 -15 -29 -34 -38 -26 -13 -33 -25 -48 -82
-22 -87 -66 -148 -104 -148 -31 0 -65 30 -80 69 -8 23 -9 23 -30 -13 -41 -70
-109 -73 -143 -6 -49 95 -53 273 -6 257 8 -2 12 -36 12 -98z m135 -323 c0 -8
7 -19 15 -26 12 -10 15 -10 15 1 0 11 2 11 10 -1 8 -12 13 -13 30 -2 12 7 20
8 20 2 0 -5 7 -10 15 -10 8 0 15 5 15 10 0 6 8 10 18 10 14 0 15 -2 2 -10 -13
-8 -12 -10 3 -10 12 0 20 10 24 30 3 17 10 33 16 37 6 4 8 -4 5 -19 -5 -27 16
-53 35 -42 7 4 9 3 4 -2 -12 -12 -210 -15 -218 -3 -3 6 -11 3 -19 -5 -10 -13
-9 -17 11 -26 22 -9 21 -10 -6 -4 -16 3 -36 7 -44 8 -16 3 -27 71 -13 80 5 3
7 -6 4 -19 -3 -19 0 -25 12 -25 11 0 14 5 10 12 -4 7 -3 8 5 4 9 -6 9 -11 -1
-24 -11 -13 -11 -14 2 -10 22 7 24 47 3 64 -17 14 -16 14 5 4 12 -6 22 -17 22
-24z m338 11 c-7 -35 36 -65 48 -34 2 7 24 14 49 15 51 2 59 -13 24 -44 -11
-10 -20 -14 -19 -9 2 6 2 18 1 29 -1 16 -3 16 -17 6 -20 -17 -71 -23 -80 -9
-4 8 -9 7 -15 -2 -6 -9 -9 -2 -9 22 0 32 6 49 18 49 2 0 2 -10 0 -23z m-33 3
c3 -6 -1 -7 -9 -4 -9 3 -16 2 -16 -4 0 -5 7 -12 15 -16 8 -3 15 -15 15 -26 0
-15 -7 -20 -25 -20 -16 0 -25 6 -25 15 0 8 8 15 18 15 14 0 15 -2 2 -10 -13
-8 -12 -10 3 -10 21 0 23 26 2 34 -8 3 -15 12 -15 21 0 17 25 21 35 5z"/>
<path d="M955 725 c-4 -25 -5 -48 -2 -51 2 -3 8 16 12 41 3 26 4 49 2 52 -3 3
-9 -16 -12 -42z"/>
<path d="M828 595 c-22 -49 45 -78 76 -33 21 30 4 58 -35 58 -22 0 -32 -6 -41
-25z"/>
</g>
</svg>
